:SAMPLES-PER-SECOND 30
:FULLY-SPECIFIED
:DEGREES
153
root  5.86995 39.0501 1.22908 32.6435 -81.506 -39.2075
RightUpLeg  1.33287 0.547 8.92955
RightLeg  22.7843 -14.6528 -7.05494
RightFoot  -10.8974 -0.085949 3.67909
RightToes  -2.32832e-010 0 -3.6325e-017
Spine  12.5129 0.106199 5.27033
Spine1  1.91779 -0.156916 5.9679
HEad  -13.4365 -0.720528 -6.82109
LeftShoulder1  1.98827 -4.06657 -19.8058
LeftArm  18.9952 34.8826 -47.8237
LeftForeArm  -7.32448 -39.0961 -9.55402
LeftHand  -1.55323 -5.26111 17.1198
RightShoulder  0.478549 -1.1064 13.1247
RightArm  -4.39359 -3.83107 59.5055
RightForeArm  107.849 79.0066 111.293
RightHand  -1.25149 1.43513 -21.2574
LeftUpLeg  -18.9878 1.3587 6.76636
LeftLeg  52.4808 3.80299 5.84977
LeftFoot  1.6656 2.20384 -19.4108
LeftToes  2.2737e-010 4.38529e-011 2.18788e-011
154
root  5.88478 38.8982 1.0753 43.229 -80.1055 -51.241
RightUpLeg  4.087 -0.518004 11.8323
RightLeg  19.772 -14.1202 -6.65536
RightFoot  -10.6073 -0.0910575 2.95579
RightToes  -2.32832e-010 0 -3.6325e-017
Spine  13.8052 1.11976 9.80321
Spine1  2.46515 1.93034 4.4556
HEad  -14.7907 -4.29074 -5.42015
LeftShoulder1  1.88714 -4.36882 -17.3173
LeftArm  21.0228 41.6367 -44.0122
LeftForeArm  -3.83396 -45.0778 -11.49
LeftHand  -1.35035 -5.27057 14.9465
RightShoulder  0.321566 -1.75065 11.4035
RightArm  -8.68955 4.2231 57.3275
RightForeArm  133.921 72.8371 143.368
RightHand  -1.03324 0.689168 -19.7258
LeftUpLeg  -25.5823 1.34816 10.0111
LeftLeg  65.1968 3.37241 8.61866
LeftFoot  3.68366 2.52569 -19.1361
LeftToes  2.2737e-010 4.38529e-011 2.18788e-011
155
root  5.81289 38.9818 0.952004 44.5427 -80.0856 -53.2614
RightUpLeg  6.4195 -2.66094 11.4646
RightLeg  16.6199 -11.6132 -4.86631
RightFoot  -10.3028 -0.0966328 2.94138
RightToes  -2.32832e-010 0 -3.6325e-017
Spine  14.3266 2.05968 10.6731
Spine1  2.75945 3.28286 3.82573
HEad  -15.0829 -6.44342 -3.6373
LeftShoulder1  1.72537 -4.31881 -15.2324
LeftArm  24.047 47.6073 -39.7798
LeftForeArm  -0.902715 -49.6999 -13.3189
LeftHand  -1.24473 -5.49232 13.5421
RightShoulder  0.278533 -1.95649 10.9973
RightArm  -13.355 10.3091 53.3335
RightForeArm  139.814 67.6882 152.706
RightHand  -0.868304 -0.0689125 -18.9159
LeftUpLeg  -30.6336 1.74351 10.2603
LeftLeg  75.2807 2.02745 9.86601
LeftFoot  0.847768 1.77175 -16.5131
LeftToes  2.2737e-010 4.38529e-011 2.18788e-011
156
root  5.68904 39.1071 0.888473 47.4413 -80.8753 -55.0413
RightUpLeg  5.99705 -3.45831 10.388
RightLeg  15.42 -9.66006 -3.47939
RightFoot  -9.86135 -0.0997498 2.57313
RightToes  -2.32832e-010 0 -3.6325e-017
Spine  13.9288 2.96543 10.3681
Spine1  1.44971 4.22125 3.41951
HEad  -13.9269 -7.14847 -2.2872
LeftShoulder1  1.60554 -4.14657 -14.0682
LeftArm  27.5782 52.702 -35.2227
LeftForeArm  0.865719 -52.5485 -14.6777
LeftHand  -1.18378 -5.81666 12.5404
RightShoulder  0.280793 -1.94124 10.9496
RightArm  -16.032 12.2922 51.1659
RightForeArm  143.065 64.9722 156.1
RightHand  -0.77567 -0.507751 -18.3943
LeftUpLeg  -35.143 2.81702 9.32884
LeftLeg  82.0159 0.591339 7.96019
LeftFoot  -2.64861 1.20597 -15.6545
LeftToes  2.2737e-010 4.38529e-011 2.18788e-011
157
root  5.59486 39.1898 0.851789 54.3224 -81.9782 -60.4559
RightUpLeg  4.45923 -3.27886 9.92388
RightLeg  15.4725 -8.5545 -3.21374
RightFoot  -9.08331 -0.0988737 1.89249
RightToes  -2.32832e-010 0 -3.6325e-017
Spine  13.497 3.83043 10.2103
Spine1  -0.0353483 5.1344 2.64045
HEad  -13.0368 -7.28342 -1.60864
LeftShoulder1  1.61078 -4.40893 -13.3777
LeftArm  29.3452 56.3334 -32.498
LeftForeArm  1.14181 -54.3583 -15.7221
LeftHand  -1.10404 -5.96288 11.5793
RightShoulder  0.266085 -2.00936 10.7777
RightArm  -15.7264 10.3338 51.8201
RightForeArm  144.647 64.0228 157.191
RightHand  -0.731132 -0.672898 -17.9364
LeftUpLeg  -37.5184 4.18158 8.55559
LeftLeg  84.6082 0.0224507 5.11229
LeftFoot  -3.74345 1.15269 -16.9
LeftToes  2.2737e-010 4.38529e-011 2.18788e-011
158
root  5.58953 39.3002 0.799476 58.725 -83.1347 -64.6814
RightUpLeg  4.38681 -2.90928 9.48484
RightLeg  15.1641 -8.16586 -3.55121
RightFoot  -8.3737 -0.100358 1.66847
RightToes  -2.32832e-010 0 -3.6325e-017
Spine  13.6021 4.18222 9.58721
Spine1  0.298796 5.56175 1.83843
HEad  -13.787 -6.95387 -1.39013
LeftShoulder1  1.69607 -4.97493 -12.9812
LeftArm  26.9939 58.0107 -33.9257
LeftForeArm  0.258364 -55.4387 -16.4859
LeftHand  -1.05571 -5.90665 11.1436
RightShoulder  0.259179 -2.0589 10.9544
RightArm  -13.147 6.78526 53.9259
RightForeArm  143.817 65.2213 155.908
RightHand  -0.697939 -0.754569 -17.4206
LeftUpLeg  -36.1666 4.98297 7.73615
LeftLeg  82.8492 0.203695 4.98062
LeftFoot  -3.70576 1.19507 -17.4572
LeftToes  2.2737e-010 4.38529e-011 2.18788e-011
159
root  5.63657 39.4467 0.767802 55.7086 -84.0274 -62.0496
RightUpLeg  4.78003 -2.79916 8.63886
RightLeg  15.1012 -8.15776 -3.83991
RightFoot  -8.12225 -0.11581 2.16064
RightToes  -2.32832e-010 0 -3.6325e-017
Spine  13.9317 3.59773 8.40159
Spine1  1.47979 4.94809 1.30086
HEad  -15.2058 -5.67736 -1.42522
LeftShoulder1  1.7556 -5.10086 -13.43
LeftArm  21.7263 57.399 -38.1831
LeftForeArm  -1.06475 -55.8774 -16.8937
LeftHand  -1.06843 -5.80357 11.3708
RightShoulder  0.365283 -1.59631 12.1589
RightArm  -9.18399 2.67843 56.0091
RightForeArm  140.601 69.2242 150.579
RightHand  -0.688891 -0.648308 -16.831
LeftUpLeg  -32.349 4.73343 6.61124
LeftLeg  77.0867 1.1795 7.30654
LeftFoot  -3.70041 1.14111 -16.6671
LeftToes  2.2737e-010 4.38529e-011 2.18788e-011
160
root  5.67468 39.5294 0.802807 49.6188 -84.4257 -55.4292
RightUpLeg  3.44888 -2.35876 7.80744
RightLeg  16.4969 -8.42436 -3.97286
RightFoot  -7.97029 -0.13473 2.73856
RightToes  -2.32832e-010 0 -3.6325e-017
Spine  14.0328 2.3671 7.4645
Spine1  1.3834 3.60927 0.623044
HEad  -15.6926 -3.56786 -1.64414
LeftShoulder1  1.7704 -4.58806 -15.0564
LeftArm  16.8291 54.4843 -41.8471
LeftForeArm  -2.34794 -56.04 -17.1141
LeftHand  -1.0787 -5.57395 11.7041
RightShoulder  0.62393 -0.547787 14.3054
RightArm  -4.82875 -2.90402 57.4427
RightForeArm  126.956 75.7202 133.521
RightHand  -0.766298 -0.00109863 -16.5336
LeftUpLeg  -27.9205 3.85332 5.58192
LeftLeg  67.5913 2.88041 8.50025
LeftFoot  -2.79498 1.25959 -16.514
LeftToes  2.2737e-010 4.38529e-011 2.18788e-011
161
root  5.67664 39.5364 0.882225 47.6619 -84.9029 -52.4175
RightUpLeg  1.2354 -1.07253 7.0798
RightLeg  18.627 -8.89152 -4.05456
RightFoot  -7.65066 -0.143631 2.84209
RightToes  -2.32832e-010 0 -3.6325e-017
Spine  13.777 1.18411 6.765
Spine1  0.635512 2.34721 -0.504469
HEad  -15.3255 -1.21889 -1.92709
LeftShoulder1  1.81209 -4.03399 -17.391
LeftArm  12.878 49.3491 -44.3303
LeftForeArm  -3.50641 -56.0758 -17.236
LeftHand  -1.08168 -5.12119 12.218
RightShoulder  0.881704 0.343432 16.3398
RightArm  -0.948964 -9.02184 58.6521
RightForeArm  69.3432 78.9252 73.9628
RightHand  -1.01398 1.3948 -17.3824
LeftUpLeg  -22.2365 3.43418 4.76091
LeftLeg  54.8918 4.15525 6.90985
LeftFoot  -1.68848 1.45226 -17.0251
LeftToes  2.2737e-010 4.38529e-011 2.18788e-011
162
root  5.62803 39.5601 0.992111 45.4984 -86.3325 -49.886
RightUpLeg  -0.479164 0.179098 5.56278
RightLeg  21.4785 -8.72683 -4.01672
RightFoot  -7.70845 -0.157305 3.41106
RightToes  -2.32832e-010 0 -3.6325e-017
Spine  13.1437 0.418378 5.16992
Spine1  1.24797 1.44325 -1.88195
HEad  -15.0037 1.21461 -2.05783
LeftShoulder1  1.91683 -3.79392 -19.7934
LeftArm  9.15519 41.805 -46.7397
LeftForeArm  -4.21293 -56.0169 -17.2512
LeftHand  -1.16363 -4.61271 13.7427
RightShoulder  0.967533 0.547938 17.3661
RightArm  2.92816 -12.5533 60.109
RightForeArm  18.3615 65.1451 23.8876
RightHand  -1.50878 3.22617 -20.2949
LeftUpLeg  -14.4564 4.19734 3.25191
LeftLeg  40.8048 4.69631 4.69782
LeftFoot  -3.07211 1.14092 -15.2871
LeftToes  2.2737e-010 4.38529e-011 2.18788e-011
163
root  5.57376 39.5416 1.16485 52 -89.1765 -56.4897
RightUpLeg  -3.97602 -0.62828 2.11245
RightLeg  28.3929 -6.06247 -3.70528
RightFoot  -7.56942 -0.252303 5.99103
RightToes  -2.32832e-010 0 -3.6325e-017
Spine  12.4904 -0.0481218 1.6544
Spine1  2.57593 0.517929 -2.96206
HEad  -14.6513 3.7439 -1.83859
LeftShoulder1  1.96797 -3.52362 -21.6618
LeftArm  6.52508 32.1146 -49.273
LeftForeArm  -3.428 -56.6706 -17.644
LeftHand  -1.32213 -4.20552 16.1886
RightShoulder  0.989916 0.560927 17.8705
RightArm  8.83195 -13.6372 60.607
RightForeArm  1.61227 43.8496 10.2099
RightHand  -2.07646 4.37941 -24.6356
LeftUpLeg  -7.10969 5.28324 -0.128108
LeftLeg  28.9094 6.3538 4.09887
LeftFoot  -7.22285 0.434691 -10.5658
LeftToes  2.2737e-010 4.38529e-011 2.18788e-011
164
root  5.61432 39.2621 1.36974 -77.2403 -86.3579 72.9
RightUpLeg  -11.7882 -2.52768 -3.4345
RightLeg  41.3699 -2.58246 -2.68476
RightFoot  -3.42625 -0.69608 9.43411
RightToes  -2.32832e-010 0 -3.6325e-017
Spine  12.7678 -0.54385 -4.06884
Spine1  2.40826 -0.883725 -3.14608
HEad  -13.9529 5.71697 -1.17217
LeftShoulder1  1.80847 -2.89851 -21.8918
LeftArm  5.58496 21.3644 -52.3211
LeftForeArm  -0.0368392 -59.2533 -19.3699
LeftHand  -1.43465 -3.96225 17.9664
RightShoulder  1.1764 1.13946 18.8948
RightArm  16.4822 -17.056 57.9001
RightForeArm  -5.71996 29.2658 6.50264
RightHand  -2.24455 3.97136 -27.6167
LeftUpLeg  -3.72984 4.56044 -5.69733
LeftLeg  22.8998 10.1052 4.98285
LeftFoot  -11.1437 0.0665018 -6.23372
LeftToes  2.2737e-010 4.38529e-011 2.18788e-011
165
root  5.72065 38.7863 1.50209 -80.2972 -81.3332 75.7496
RightUpLeg  -21.2738 -4.82368 -9.9753
RightLeg  55.8095 -0.529235 -1.27817
RightFoot  7.67558 -1.57029 9.91902
RightToes  -2.32832e-010 0 -3.6325e-017
Spine  14.3044 -1.38645 -11.1846
Spine1  1.23456 -2.78237 -2.57383
HEad  -13.6592 6.30885 -0.133899
LeftShoulder1  1.45907 -2.12596 -19.382
LeftArm  4.71476 10.6082 -56.6571
LeftForeArm  6.4079 -64.0352 -23.5522
LeftHand  -1.41953 -3.97465 17.757
RightShoulder  1.46569 2.03821 20.1246
RightArm  20.5251 -25.6003 51.7247
RightForeArm  -4.94969 28.0277 6.32
RightHand  -2.03199 3.09378 -27.5281
LeftUpLeg  -2.9915 2.09404 -11.9414
LeftLeg  21.686 13.1915 5.81748
LeftFoot  -12.4097 0.0292766 -4.5485
LeftToes  2.2737e-010 4.38529e-011 2.18788e-011
166
root  5.7547 38.2816 1.54966 -74.4902 -76.8865 68.6455
RightUpLeg  -28.9172 -6.67045 -15.3595
RightLeg  68.3493 -0.152441 -1.2454
RightFoot  18.5146 -1.68782 6.79921
RightToes  -2.32832e-010 0 -3.6325e-017
Spine  15.852 -2.50597 -16.9608
Spine1  1.53235 -5.02559 -2.35609
HEad  -14.2396 5.61214 1.04866
LeftShoulder1  1.06975 -1.47318 -14.6005
LeftArm  1.90925 0.678854 -61.3267
LeftForeArm  16.548 -70.1054 -32.1521
LeftHand  -1.28507 -3.93235 16.1843
RightShoulder  1.5342 2.31222 20.0242
RightArm  21.969 -36.0808 44.7037
RightForeArm  2.03615 36.0534 8.102
RightHand  -1.75537 2.64328 -25.207
LeftUpLeg  -2.02346 1.54774 -16.0801
LeftLeg  22.4834 12.1965 5.18787
LeftFoot  -12.6987 0.0279181 -4.09053
LeftToes  2.2737e-010 4.38529e-011 2.18788e-011
167
root  5.63678 38.1084 1.59816 -71.4157 -75.0726 64.1483
RightUpLeg  -34.1675 -7.23564 -17.4967
RightLeg  78.4915 -0.403474 -4.21571
RightFoot  20.2949 -0.896666 3.59442
RightToes  -2.32832e-010 0 -3.6325e-017
Spine  16.0859 -4.08095 -18.8225
Spine1  3.26211 -6.94937 -3.37488
HEad  -14.3205 4.40286 2.07587
LeftShoulder1  0.766582 -0.939094 -9.93831
LeftArm  -2.84412 -6.88307 -63.7849
LeftForeArm  33.0653 -75.6523 -48.2968
LeftHand  -1.12363 -3.48791 14.8976
RightShoulder  1.30553 1.78295 18.1909
RightArm  27.1842 -44.3054 38.7548
RightForeArm  8.18186 44.6961 10.5078
RightHand  -1.51718 2.41193 -22.5459
LeftUpLeg  -0.0667263 2.75123 -16.8302
LeftLeg  22.1854 9.81916 3.52096
LeftFoot  -13.0886 0.0317577 -3.05413
LeftToes  2.2737e-010 4.38529e-011 2.18788e-011
